# Blender v2.76 (sub 0) OBJ File: ''
# www.blender.org
mtllib KeyHole.mtl
o Cube
v 0.013983 -0.039144 -0.018685
v 0.016111 -0.077761 -0.023171
v 0.013983 -0.039144 0.018685
v 0.016111 -0.077761 0.023171
v -0.013982 -0.039144 -0.018685
v -0.016111 -0.077761 -0.023171
v -0.013982 -0.039144 0.018685
v -0.016111 -0.077761 0.023171
v 0.012338 -0.025246 0.016487
v -0.012338 -0.025246 0.016487
v 0.012338 -0.025246 -0.016487
v -0.012338 -0.025246 -0.016487
v 0.008784 0.007157 0.011739
v -0.008784 0.007157 0.011739
v 0.008784 0.007157 -0.011739
v -0.008784 0.007157 -0.011739
v 0.010138 0.010457 0.013547
v -0.010138 0.010457 0.013547
v 0.010138 0.010457 -0.013547
v -0.010138 0.010457 -0.013547
v 0.013353 0.016226 0.017844
v -0.013353 0.016226 0.017844
v 0.013353 0.016226 -0.017844
v -0.013353 0.016226 -0.017844
v 0.015701 0.020347 0.020981
v -0.015701 0.020347 0.020981
v 0.015701 0.020347 -0.020981
v -0.015701 0.020347 -0.020981
v 0.018051 0.026905 0.024122
v -0.018051 0.026905 0.024122
v 0.018051 0.026905 -0.024122
v -0.018051 0.026905 -0.024122
v 0.018051 0.029365 0.024122
v -0.018051 0.029365 0.024122
v 0.018051 0.029365 -0.024122
v -0.018051 0.029365 -0.024122
v 0.018051 0.033460 0.024122
v -0.018051 0.033460 0.024122
v 0.018051 0.033460 -0.024122
v -0.018051 0.033460 -0.024122
v 0.016694 0.037562 0.022308
v -0.016694 0.037562 0.022308
v 0.016694 0.037562 -0.022308
v -0.016694 0.037562 -0.022308
v 0.013967 0.041521 0.018665
v -0.013967 0.041521 0.018665
v 0.013967 0.041521 -0.018665
v -0.013967 0.041521 -0.018665
v 0.006292 0.046592 0.008408
v -0.006292 0.046592 0.008408
v 0.006292 0.046592 -0.008408
v -0.006292 0.046592 -0.008408
vn 0.000000 -1.000000 0.000000
vn -0.998500 0.055000 0.000000
vn 0.993100 0.117500 0.000000
vn 0.998500 0.055000 0.000000
vn 0.000000 0.115400 -0.993300
vn 0.000000 0.115400 0.993300
vn -0.994000 0.109000 0.000000
vn 0.000000 0.156200 -0.987700
vn 0.000000 0.156200 0.987700
vn -0.993100 0.117500 0.000000
vn 0.000000 -0.480500 -0.877000
vn 0.994000 0.109000 0.000000
vn 0.000000 0.145000 -0.989400
vn 0.000000 0.145000 0.989400
vn 0.000000 -0.597300 -0.802000
vn 0.000000 -0.480500 0.877000
vn -0.925300 -0.379400 0.000000
vn 0.925300 -0.379400 0.000000
vn -0.868900 -0.495000 0.000000
vn 0.000000 -0.597300 0.802000
vn -0.873500 -0.486800 0.000000
vn 0.873500 -0.486800 0.000000
vn 0.000000 -0.431900 -0.901900
vn 0.868900 -0.495000 0.000000
vn 0.000000 -0.605800 -0.795700
vn 0.000000 -0.605800 0.795700
vn 0.000000 0.000000 1.000000
vn 0.000000 -0.431900 0.901900
vn -0.941400 -0.337400 0.000000
vn 0.941400 -0.337400 0.000000
vn -1.000000 0.000000 0.000000
vn 1.000000 0.000000 0.000000
vn 0.000000 0.000000 -1.000000
vn 0.000000 0.404400 -0.914600
vn -0.823500 0.567300 0.000000
vn 0.000000 0.404400 0.914600
vn -0.949400 0.314100 0.000000
vn 0.949400 0.314100 0.000000
vn 0.551300 0.834300 0.000000
vn 0.823500 0.567300 0.000000
vn 0.000000 0.677300 -0.735700
vn 0.000000 0.677300 0.735700
vn 0.000000 1.000000 0.000000
vn 0.000000 0.896400 -0.443300
vn 0.000000 0.896400 0.443300
vn -0.551300 0.834300 0.000000
usemtl Material
s off
f 8//1 6//1 2//1 4//1
f 7//2 5//2 6//2 8//2
f 3//3 1//3 11//3 9//3
f 1//4 3//4 4//4 2//4
f 5//5 1//5 2//5 6//5
f 3//6 7//6 8//6 4//6
f 12//7 10//7 14//7 16//7
f 1//8 5//8 12//8 11//8
f 7//9 3//9 9//9 10//9
f 5//10 7//10 10//10 12//10
f 15//11 16//11 20//11 19//11
f 9//12 11//12 15//12 13//12
f 11//13 12//13 16//13 15//13
f 10//14 9//14 13//14 14//14
f 19//15 20//15 24//15 23//15
f 14//16 13//16 17//16 18//16
f 16//17 14//17 18//17 20//17
f 13//18 15//18 19//18 17//18
f 24//19 22//19 26//19 28//19
f 18//20 17//20 21//20 22//20
f 20//21 18//21 22//21 24//21
f 17//22 19//22 23//22 21//22
f 27//23 28//23 32//23 31//23
f 21//24 23//24 27//24 25//24
f 23//25 24//25 28//25 27//25
f 22//26 21//26 25//26 26//26
f 30//27 29//27 33//27 34//27
f 26//28 25//28 29//28 30//28
f 28//29 26//29 30//29 32//29
f 25//30 27//30 31//30 29//30
f 36//31 34//31 38//31 40//31
f 32//31 30//31 34//31 36//31
f 29//32 31//32 35//32 33//32
f 31//33 32//33 36//33 35//33
f 39//34 40//34 44//34 43//34
f 33//32 35//32 39//32 37//32
f 35//33 36//33 40//33 39//33
f 34//27 33//27 37//27 38//27
f 44//35 42//35 46//35 48//35
f 38//36 37//36 41//36 42//36
f 40//37 38//37 42//37 44//37
f 37//38 39//38 43//38 41//38
f 45//39 47//39 51//39 49//39
f 41//40 43//40 47//40 45//40
f 43//41 44//41 48//41 47//41
f 42//42 41//42 45//42 46//42
f 49//43 51//43 52//43 50//43
f 47//44 48//44 52//44 51//44
f 46//45 45//45 49//45 50//45
f 48//46 46//46 50//46 52//46
